<?xml version="1.0" standalone="no"?>
<!DOCTYPE svg PUBLIC "-//W3C//DTD SVG 20010904//EN"
 "http://www.w3.org/TR/2001/REC-SVG-20010904/DTD/svg10.dtd">
<svg version="1.0" xmlns="http://www.w3.org/2000/svg"
 width="242.000000pt" height="300.000000pt" viewBox="0 0 242.000000 300.000000"
 preserveAspectRatio="xMidYMid meet">
<metadata>
Created by potrace 1.16, written by Peter Selinger 2001-2019
</metadata>
<g transform="translate(0.000000,300.000000) scale(0.100000,-0.100000)"
fill="#000000" stroke="none">
<path d="M431 2967 c-11 -27 -41 -324 -41 -395 0 -29 4 -51 9 -48 8 5 13 33
27 161 21 188 34 268 44 278 10 9 11 9 6 -3 -4 -8 0 -6 10 5 16 20 16 20 11
-2 -4 -17 -1 -23 11 -24 11 0 12 -2 5 -6 -7 -2 -13 -9 -13 -14 0 -4 7 -6 15
-3 17 7 21 34 5 34 -5 0 -10 5 -10 10 0 6 7 6 19 -2 10 -6 17 -17 14 -24 -3
-9 2 -12 16 -9 12 2 19 0 16 -4 -8 -14 21 -20 36 -8 11 10 11 9 2 -3 -15 -19
-1 -45 18 -35 8 4 1 -5 -15 -19 -17 -15 -36 -24 -43 -22 -7 3 -12 2 -12 -2 3
-18 -2 -33 -9 -28 -16 10 -6 -142 12 -168 19 -29 62 -44 79 -27 8 8 5 11 -11
11 -33 0 -56 44 -57 110 0 46 5 62 26 87 25 30 27 31 58 16 24 -12 31 -22 31
-44 0 -39 -16 -45 -29 -9 -10 30 -31 42 -31 18 0 -30 13 -58 26 -58 8 0 14 -9
14 -19 0 -11 5 -23 11 -27 6 -4 8 -19 5 -37 -8 -41 16 -67 63 -67 l36 1 -32
14 c-41 18 -53 42 -53 108 0 39 6 61 20 79 15 20 17 28 7 38 -10 12 -9 12 4 2
9 -6 18 -10 20 -7 3 2 18 -6 34 -19 25 -20 29 -31 33 -84 2 -33 0 -74 -6 -90
-13 -37 -1 -56 35 -58 15 -1 32 -3 36 -3 5 -1 6 -4 4 -8 -3 -5 12 -7 34 -7 37
2 47 -4 32 -19 -3 -4 -13 -1 -22 6 -14 10 -14 10 -3 -5 7 -9 21 -15 30 -13 23
3 37 -6 22 -15 -9 -5 -9 -9 -1 -14 6 -4 11 -2 11 3 0 6 5 11 10 11 6 0 9 -3 9
-7 -1 -5 -1 -17 0 -28 1 -15 3 -17 10 -6 7 11 9 11 13 0 3 -9 6 -8 11 4 3 9 1
19 -5 23 -7 4 -8 3 -4 -4 4 -8 2 -10 -8 -6 -8 3 -12 12 -9 20 5 13 8 13 23 -1
9 -8 20 -12 25 -8 4 5 2 -3 -5 -16 -8 -16 -9 -21 -1 -16 7 4 18 1 26 -5 8 -7
24 -10 35 -7 11 3 23 1 26 -5 3 -5 18 -8 32 -7 15 1 34 -1 42 -4 8 -3 74 -13
145 -22 72 -9 139 -18 151 -20 13 -3 21 1 21 9 0 8 -6 12 -15 8 -10 -4 -13 -1
-8 7 6 8 2 11 -10 9 -14 -2 -18 2 -16 17 2 11 1 17 -3 13 -6 -6 -35 14 -35 24
0 3 24 1 53 -3 59 -9 108 -10 90 -2 -9 3 -13 33 -13 99 0 52 -4 94 -9 94 -12
0 -23 -154 -11 -158 19 -7 10 -22 -12 -22 -66 1 -68 4 -68 107 0 60 -4 92 -10
88 -5 -3 -10 -46 -10 -96 0 -72 -3 -89 -15 -89 -11 0 -15 13 -16 53 l-1 52
-10 -47 c-14 -64 -34 -62 -44 5 l-9 52 -6 -55 c-5 -45 -6 -36 -7 48 -2 78 -5
103 -14 99 -14 -4 -16 -33 -5 -124 6 -53 4 -63 -8 -63 -9 0 -20 11 -25 25 -11
30 -40 33 -40 5 0 -11 -4 -20 -10 -20 -14 0 -13 15 6 104 18 88 14 115 -9 69
-11 -20 -17 -56 -17 -98 0 -58 -2 -65 -20 -65 -19 0 -20 7 -20 101 0 64 -4 98
-10 94 -6 -3 -10 -49 -10 -101 0 -69 -3 -95 -12 -92 -13 5 -21 17 -48 78 l-20
45 6 -59 c4 -46 3 -57 -8 -54 -10 4 -12 28 -9 104 2 54 5 101 7 103 9 10 33
-24 44 -64 17 -60 30 -66 30 -15 0 45 -16 84 -30 75 -6 -3 -7 1 -4 10 4 10 2
15 -7 13 -8 -2 -13 2 -12 9 2 7 -6 10 -18 8 -18 -4 -19 -2 -8 13 7 9 9 14 5
10 -5 -4 -15 0 -23 10 -12 16 -13 16 -7 -3 l6 -20 -13 20 c-20 31 -51 55 -63
48 -6 -3 -8 -3 -4 2 12 13 -21 37 -42 30 -12 -4 -20 -2 -20 4 0 7 -12 9 -30 6
-17 -3 -30 -1 -30 5 0 6 -13 8 -30 5 -18 -3 -30 -1 -30 6 0 6 -8 8 -20 4 -12
-4 -27 -1 -35 5 -8 6 -23 9 -34 5 -10 -3 -22 -1 -25 4 -4 5 -17 8 -31 5 -13
-2 -26 0 -30 5 -3 6 -15 8 -27 6 -11 -3 -26 -1 -31 2 -6 4 -20 8 -31 9 -99 13
-97 13 -105 -9z m491 -188 c14 -8 17 -22 16 -77 0 -37 2 -82 6 -99 7 -31 6
-33 -16 -24 -18 6 -24 17 -26 47 -5 61 -22 66 -22 7 0 -46 -2 -51 -20 -46 -31
8 -33 17 -25 119 l7 95 31 -7 c18 -3 40 -10 49 -15z"/>
<path d="M556 2491 c-2 -3 -7 -31 -11 -62 -7 -60 -2 -70 39 -75 12 -1 46 -5
76 -8 54 -7 101 -12 170 -21 19 -3 61 -7 92 -11 31 -3 65 -7 75 -9 10 -2 31
-4 46 -4 16 -1 26 -5 23 -9 -3 -5 15 -6 40 -2 78 12 198 12 268 -1 38 -6 63
-15 56 -19 -8 -5 -7 -9 5 -14 26 -10 42 -7 25 5 -12 8 -10 9 10 5 14 -3 30 -6
35 -6 6 0 4 -4 -4 -9 -10 -6 1 -16 40 -34 48 -22 51 -25 26 -26 -38 -1 -30
-23 13 -37 37 -12 20 -25 -23 -17 -19 4 -27 1 -27 -8 0 -8 -9 -20 -20 -27 -11
-7 -20 -20 -20 -29 0 -10 -12 -27 -27 -39 -25 -20 -26 -25 -15 -43 14 -24 16
-51 4 -51 -5 0 -14 11 -20 24 -12 27 -97 55 -115 37 -6 -6 -28 -11 -48 -11
-21 0 -41 -5 -45 -11 -4 -8 9 -10 42 -9 77 4 76 4 68 -37 -4 -21 -13 -46 -22
-55 -8 -10 -11 -18 -6 -18 5 0 15 9 22 20 7 11 21 20 31 20 16 0 18 -6 14 -44
-5 -43 -5 -43 31 -50 35 -7 37 -9 34 -43 -3 -36 -2 -37 55 -59 54 -21 58 -21
70 -5 16 24 58 45 66 34 3 -5 17 -9 31 -9 14 0 32 -4 41 -8 9 -4 23 -1 30 6
22 20 50 24 99 15 31 -6 80 -38 80 -52 0 -8 5 -15 12 -15 6 0 3 -7 -8 -16 -10
-8 -13 -13 -6 -9 15 8 16 -27 1 -42 -21 -21 2 -73 52 -124 58 -58 67 -86 45
-142 -8 -23 -20 -65 -26 -92 -11 -54 -41 -92 -98 -126 -18 -11 -39 -33 -46
-49 -14 -34 -100 -105 -115 -95 -6 3 -11 0 -11 -8 0 -7 -16 -21 -35 -30 -20
-9 -38 -23 -41 -31 -3 -8 -12 -12 -20 -9 -8 3 -14 -1 -14 -11 0 -8 -9 -20 -20
-26 -11 -6 -20 -16 -20 -23 0 -7 -14 -25 -31 -40 -19 -16 -29 -33 -25 -42 3
-8 1 -15 -5 -15 -22 0 -27 45 -9 80 25 50 104 245 125 308 20 62 15 90 -24
134 -15 18 -44 62 -64 98 -44 81 -48 147 -11 197 46 61 18 126 -58 136 -31 4
-49 14 -68 36 -14 17 -31 31 -38 31 -38 0 -262 99 -262 116 0 6 -29 37 -65 69
-36 31 -65 54 -65 51 0 -4 27 -32 60 -64 33 -32 60 -65 60 -73 0 -16 61 -55
118 -76 18 -7 41 -18 52 -26 20 -14 20 -14 -2 -43 -33 -44 -100 -104 -110 -98
-4 3 -8 0 -8 -5 0 -6 -3 -11 -7 -10 -15 2 -53 -13 -49 -20 2 -3 -8 -7 -22 -8
-15 -1 -36 -2 -47 -3 -84 -9 -198 73 -279 202 -64 102 -48 152 80 243 53 38
67 36 102 -12 11 -16 23 -25 26 -22 9 8 -10 57 -29 75 -20 21 -19 41 6 75 11
16 22 35 23 42 1 7 5 18 10 25 18 30 -12 33 -63 7 -29 -14 -57 -23 -63 -19 -6
4 -8 3 -5 -3 9 -14 -40 -46 -55 -37 -6 4 -8 3 -5 -3 6 -9 -13 -24 -34 -27 -11
-2 -133 -126 -124 -126 4 0 -2 -8 -13 -19 -12 -10 -19 -21 -15 -25 3 -3 0 -6
-7 -6 -7 0 -11 -3 -7 -6 3 -3 -10 -36 -29 -74 -39 -75 -54 -149 -49 -230 11
-160 15 -214 20 -252 4 -42 4 -42 -5 -8 -34 134 -37 530 -5 830 16 154 12 183
-27 196 -10 3 -15 10 -12 17 4 7 4 9 -1 5 -4 -4 -14 -3 -21 3 -21 17 -28 -83
-28 -431 0 -335 9 -474 45 -688 17 -105 62 -286 84 -344 4 -11 3 -18 -4 -18
-13 0 -42 57 -66 128 -16 51 -18 52 -51 50 -19 -1 -34 -6 -34 -10 0 -4 -6 -5
-12 -3 -7 3 -20 0 -28 -5 -13 -8 -13 -11 -1 -19 8 -5 11 -16 8 -25 -4 -9 -2
-16 4 -16 6 0 9 -6 6 -14 -3 -7 0 -19 6 -25 6 -6 8 -11 5 -11 -10 0 46 -133
84 -199 86 -153 172 -259 313 -390 141 -131 380 -273 564 -336 l74 -25 77 56
c182 130 347 299 457 464 55 82 64 99 107 186 16 32 33 67 37 76 5 10 9 27 9
38 0 11 5 20 11 20 6 0 9 7 5 15 -3 8 -1 15 4 15 14 0 12 13 -4 36 -14 18 -15
17 -27 -16 -75 -212 -318 -470 -597 -634 l-82 -48 -72 22 c-221 67 -440 232
-578 435 -48 70 -105 175 -95 175 2 0 14 -17 24 -39 24 -45 71 -85 162 -135
222 -122 487 -139 723 -48 200 78 402 277 440 434 8 29 28 86 45 126 41 94 56
211 41 325 -13 105 -36 174 -60 182 -10 3 -21 13 -24 21 -3 8 -10 12 -16 9 -6
-4 -7 1 -3 11 5 13 3 15 -8 9 -8 -4 -11 -5 -7 0 4 4 1 23 -7 42 -8 20 -15 47
-15 61 0 49 -43 117 -124 197 -45 44 -99 89 -121 100 -22 11 -46 26 -54 33 -7
7 -20 11 -27 8 -7 -3 -16 -2 -18 3 -7 11 16 10 141 -5 99 -13 116 -13 142 0
23 13 30 23 33 56 2 23 1 43 -2 45 -6 4 -1105 152 -1278 173 -40 5 -75 6 -76
3z m174 -1892 c0 -3 45 -45 99 -92 55 -48 106 -93 113 -100 7 -6 82 -72 166
-146 83 -73 152 -136 152 -138 0 -7 -64 33 -138 85 -68 48 -263 221 -322 286
-49 54 -120 149 -120 161 0 10 49 -45 50 -56z"/>
<path d="M1768 254 c-36 -19 -48 -43 -48 -94 0 -92 109 -132 176 -65 18 18 24
35 24 65 0 52 -13 76 -50 95 -36 19 -67 19 -102 -1z m103 -33 c34 -35 37 -68
8 -105 -16 -20 -29 -26 -59 -26 -65 0 -101 66 -64 118 16 23 46 40 72 41 8 1
27 -12 43 -28z"/>
</g>
</svg>
